<mxfile host="app.diagrams.net" modified="2024-06-03T13:12:51.493Z" agent="Mozilla/5.0 (Macintosh; Intel Mac OS X 10_15_7) AppleWebKit/537.36 (KHTML, like Gecko) Chrome/125.0.0.0 Safari/537.36" version="24.4.13" etag="obU7LnvqcaBLBlx-KqK_" type="github">
  <diagram name="PÃ¡gina-1" id="gwvRZjVxK6SX92IuNTvt">
    <mxGraphModel>
      <root>
        <mxCell id="0" />
        <mxCell id="1" parent="0" />
      </root>
    </mxGraphModel>
  </diagram>
</mxfile>
